<svg width="24" height="24" viewBox="0 0 24 24" fill="none" xmlns="http://www.w3.org/2000/svg">
<path fill-rule="evenodd" clip-rule="evenodd" d="M4.63451 3.05873C5.22174 2.49958 6.00421 2.19132 6.8156 2.20014C7.63442 2.20903 8.41678 2.54011 8.99327 3.12167C9.00939 3.13793 9.02083 3.15084 9.02381 3.1542C9.03002 3.16119 9.0353 3.16738 9.0381 3.17069L9.05187 3.18731L9.0718 3.21219C9.08514 3.22902 9.10273 3.25143 9.12323 3.27767C9.16453 3.33055 9.22158 3.40399 9.28859 3.49048C9.42279 3.6637 9.59919 3.8921 9.77452 4.11935C9.94991 4.3467 10.1245 4.57328 10.2553 4.74299L10.4493 4.99492C10.9846 5.57371 11.2821 6.3338 11.2812 7.1233C11.2802 7.91874 10.9765 8.68362 10.4322 9.26274L9.5672 10.29C9.99691 11.1909 10.5773 12.0133 11.2843 12.7212C11.9909 13.4287 12.812 14.0098 13.7117 14.4405L14.7383 13.5727C15.3174 13.027 16.0828 12.7222 16.8791 12.7209C17.6692 12.7196 18.43 13.0173 19.0091 13.5532L19.2613 13.7473C19.4313 13.8782 19.6582 14.053 19.8859 14.2286C20.1134 14.404 20.3421 14.5805 20.5155 14.7148C20.602 14.7818 20.6755 14.8388 20.7283 14.8801L20.7937 14.9314L20.8184 14.9511L20.8349 14.9647C20.8381 14.9675 20.844 14.9725 20.851 14.9787C20.8536 14.981 20.869 14.9945 20.8881 15.0137C21.472 15.6 21.7997 16.3943 21.8 17.2211C21.8004 18.0387 21.4809 18.8235 20.9104 19.4081L20.2416 20.1782C20.2254 20.1969 20.2083 20.2148 20.1904 20.2319C18.3672 21.9749 15.9354 22.1097 13.5922 21.387C11.2559 20.6665 8.88077 19.0681 6.92364 17.1153C4.96637 15.1623 3.36141 12.7891 2.62887 10.454C1.89479 8.11405 2.00918 5.68067 3.72821 3.85285C3.74646 3.83345 3.76566 3.81497 3.78575 3.79749L4.63451 3.05873ZM18.0025 14.7974C17.9802 14.7803 17.9589 14.7621 17.9386 14.7427C17.6537 14.4713 17.2751 14.3203 16.8817 14.3209C16.4882 14.3216 16.1102 14.4739 15.8261 14.7462C15.8141 14.7577 15.8017 14.7689 15.789 14.7796L14.3615 15.9863C14.133 16.1794 13.8159 16.2289 13.5395 16.1147C12.2723 15.5911 11.1211 14.822 10.1522 13.8519C9.18325 12.8818 8.41564 11.7296 7.8935 10.4618C7.77994 10.186 7.82919 9.86996 8.02128 9.64184L9.22336 8.21425C9.23422 8.20135 9.24548 8.1888 9.25714 8.17662C9.52885 7.89249 9.68071 7.51461 9.68117 7.12143C9.68163 6.72825 9.53065 6.35002 9.2596 6.06525C9.24035 6.04503 9.22218 6.02382 9.20515 6.00169L8.98777 5.71944C8.85716 5.54989 8.68279 5.32363 8.5077 5.09669C8.33254 4.86964 8.15696 4.6423 8.02379 4.47043C7.95712 4.38437 7.90163 4.31294 7.86232 4.26262L7.83033 4.22186C7.55282 3.95539 7.18383 3.80423 6.79822 3.80004C6.40015 3.79572 6.01638 3.94837 5.73001 4.22497C5.72007 4.23458 5.70988 4.24392 5.69945 4.253L4.86767 4.97697C3.70958 6.23109 3.52697 7.97153 4.15551 9.97507C4.79027 11.9984 6.22438 14.1573 8.05378 15.9827C9.88331 17.8082 12.0424 19.2347 14.0638 19.8581C16.0646 20.4752 17.8037 20.28 19.059 19.0998L19.7188 18.3401C19.7305 18.3266 19.7427 18.3134 19.7554 18.3007C20.0403 18.014 20.2002 17.6261 20.2 17.2219C20.1999 16.8308 20.0499 16.4548 19.7824 16.1716L19.7439 16.1414C19.6935 16.1021 19.622 16.0466 19.5359 15.9799C19.3638 15.8466 19.1362 15.6709 18.9088 15.4956C18.6816 15.3203 18.455 15.1458 18.2852 15.015L18.0025 14.7974ZM7.85736 4.24847C7.85749 4.2486 7.85723 4.24834 7.85736 4.24847ZM7.86846 4.25944C7.86455 4.25566 7.86084 4.25198 7.85736 4.24847L7.86846 4.25944Z" fill="#333333"/>
</svg>
