<svg width="24" height="24" viewBox="0 0 24 24" fill="none" xmlns="http://www.w3.org/2000/svg">
<g clip-path="url(#clip0_18_2153)">
<path d="M0 4H24V20H0V4Z" fill="white"/>
<path d="M8.67175 9.78113C9.26024 8.89846 10.1753 8.28572 11.2155 8.0777C12.2558 7.86967 13.3361 8.08341 14.2188 8.67189C15.1015 9.26036 15.7142 10.1754 15.9223 11.2156C16.1303 12.2559 15.9165 13.3362 15.3281 14.2188L8.67175 9.78113Z" fill="#DE3412"/>
<path d="M8.67189 9.78115C8.08341 10.6638 7.86967 11.7441 8.07769 12.7844C8.28571 13.8246 8.89846 14.7396 9.78114 15.3281C10.6638 15.9166 11.7441 16.1303 12.7844 15.9223C13.8247 15.7143 14.7397 15.1016 15.3282 14.2189C15.6224 13.7776 15.7293 13.2374 15.6253 12.7173C15.5213 12.1972 15.2149 11.7396 14.7735 11.4454C14.3322 11.1512 13.7921 11.0443 13.2719 11.1483C12.7518 11.2523 12.2943 11.5587 12 12L8.67189 9.78115Z" fill="#023D89"/>
<path d="M11.9999 12.0001C12.6127 11.081 12.3644 9.8393 11.4453 9.22658C10.5263 8.61385 9.28455 8.86216 8.67182 9.78119C8.05909 10.7002 8.3074 11.942 9.22644 12.5547C10.1455 13.1674 11.3872 12.9191 11.9999 12.0001Z" fill="#DE3412"/>
<path d="M3.67941 8.85664L5.89821 5.52844L6.45291 5.89824L4.23411 9.22644L3.67941 8.85664ZM4.51146 9.41134L6.73026 6.08314L7.28496 6.45294L5.06616 9.78114L4.51146 9.41134ZM5.34351 9.96604L7.56231 6.63784L8.11701 7.00764L5.89821 10.3358L5.34351 9.96604Z" fill="black"/>
<path d="M19.3035 16.6686L20.3203 15.1433L19.7656 14.7735L18.7488 16.2988L19.3035 16.6686Z" fill="black"/>
<path d="M18.4714 16.1139L19.4883 14.5886L18.9336 14.2188L17.9167 15.7441L18.4714 16.1139Z" fill="black"/>
<path d="M17.7318 16.0214L18.2865 16.3912L17.2695 17.9168L16.7148 17.547L17.7318 16.0214Z" fill="black"/>
<path d="M17.6394 15.5592L18.6562 14.0339L18.1015 13.6641L17.0847 15.1894L17.6394 15.5592Z" fill="black"/>
<path d="M16.8998 15.4667L17.4545 15.8365L16.4374 17.3621L15.8827 16.9923L16.8998 15.4667Z" fill="black"/>
<path d="M18.5639 16.5761L19.1186 16.9459L18.1015 18.4715L17.5468 18.1017L18.5639 16.5761Z" fill="black"/>
<path d="M17.4543 8.16349L16.4374 6.63801L15.8827 7.00781L16.8996 8.53329L17.4543 8.16349Z" fill="black"/>
<path d="M17.0845 8.81064L18.1015 10.336L18.6562 9.96621L17.6392 8.44084L17.0845 8.81064Z" fill="black"/>
<path d="M18.9335 9.78131L16.7147 6.45311L17.2694 6.08331L19.4882 9.41151L18.9335 9.78131Z" fill="black"/>
<path d="M19.7656 9.22661L18.7486 7.70121L19.3033 7.33141L20.3203 8.85681L19.7656 9.22661Z" fill="black"/>
<path d="M19.1184 7.05406L18.5637 7.42386L17.5468 5.89841L18.1015 5.52861L19.1184 7.05406Z" fill="black"/>
<path d="M3.67932 15.1434L5.89812 18.4716L6.45282 18.1018L4.23402 14.7736L3.67932 15.1434Z" fill="black"/>
<path d="M5.71323 16.3915L6.73017 17.9169L7.28487 17.5471L6.26793 16.0217L5.71323 16.3915Z" fill="black"/>
<path d="M5.52833 16.1142L6.08303 15.7444L5.06607 14.2189L4.51137 14.5887L5.52833 16.1142Z" fill="black"/>
<path d="M5.34342 14.034L7.56222 17.3622L8.11692 16.9924L5.89812 13.6642L5.34342 14.034Z" fill="black"/>
</g>
<defs>
<clipPath id="clip0_18_2153">
<rect width="24" height="16" fill="white" transform="translate(0 4)"/>
</clipPath>
</defs>
</svg>
