<svg width="24" height="24" viewBox="0 0 24 24" fill="none" xmlns="http://www.w3.org/2000/svg">
<path d="M22 12C22 17.5235 17.5221 22 12.0009 22C6.47973 22 2 17.5235 2 12C2 6.47645 6.47604 2 12.0009 2C17.5258 2 22 6.4783 22 12Z" fill="white"/>
<path d="M16.7702 11.3039C15.1716 10.2235 13.1254 10.663 12.0504 12.2882C11.1554 13.6455 9.80189 13.8154 9.28015 13.8154C7.5701 13.8154 6.40221 12.6187 6.05501 11.3814C6.05129 11.3685 6.04758 11.3574 6.04572 11.3463C6.04201 11.3334 6.04015 11.3186 6.03458 11.3039C5.89718 10.7868 5.86376 10.5412 5.86376 9.99268C5.86376 7.03608 8.91623 3.74153 13.3093 3.74153C17.7023 3.74153 20.3853 7.14873 21.0518 9.04347C21.0388 9.00838 21.0277 8.97699 21.0165 8.94375C19.7391 5.23737 16.2058 2.5744 12.0467 2.5744C6.81626 2.5744 2.57178 6.79232 2.57178 12.0001C2.57178 16.6538 5.94546 20.6353 10.6281 20.6353C14.3602 20.6353 16.8686 18.5559 18.0179 15.6843C18.6492 14.1146 18.2036 12.2715 16.7702 11.302" fill="#023D89"/>
<path d="M21.1057 9.22616C20.5506 7.37759 17.9586 3.74139 13.3056 3.74139C8.91257 3.74139 5.86011 7.03595 5.86011 9.99255C5.86011 10.541 5.89539 10.7866 6.03093 11.3037C5.97337 11.0766 5.94366 10.8513 5.94366 10.6315C5.94366 7.55118 9.0444 5.41637 12.2324 5.41637C16.5493 5.41637 20.0474 8.8956 20.0474 13.1874C20.0474 16.5503 18.0997 19.4644 15.2737 20.8624C18.9204 19.5512 21.5235 16.0775 21.5235 11.9999C21.5235 11.0341 21.3935 10.1828 21.1076 9.22616" fill="#DE3412"/>
</svg>
