<svg width="24" height="24" viewBox="0 0 24 24" fill="none" xmlns="http://www.w3.org/2000/svg">
<path fill-rule="evenodd" clip-rule="evenodd" d="M4 3.79994C4 2.80583 4.80589 1.99994 5.8 1.99994H18.2C19.1942 1.99994 20.0008 2.80583 20.0008 3.79994V10.5055C20.0008 10.5192 20.0006 10.5329 20.0003 10.5466L20.0007 20.0422C20.0008 21.5752 18.2068 22.4066 17.0372 21.4157L12.2229 17.3371L6.89346 21.4082C5.70892 22.3131 4.00078 21.4685 4.00078 19.9778V9.58974C4.00026 9.57209 4 9.55441 4 9.5367V3.79994ZM5.8 3.59994C5.68954 3.59994 5.6 3.68948 5.6 3.79994V9.5367L5.60016 9.54465C5.60057 9.55518 5.60078 9.56571 5.60078 9.57624V19.9778C5.60078 20.1435 5.79058 20.2373 5.92219 20.1368L11.7632 15.6748C12.0619 15.4467 12.4791 15.4572 12.7659 15.7002L18.0714 20.1949C18.2014 20.305 18.4007 20.2126 18.4007 20.0423L18.4003 10.5362C18.4003 10.528 18.4004 10.5198 18.4007 10.5116L18.4008 10.5055V3.79994C18.4008 3.68948 18.3112 3.59994 18.2008 3.59994H5.8Z" fill="#333333"/>
<path d="M18.5 3.5H5.5V20.5L11.5 15.5H12.5L18.5 20.5V3.5Z" fill="#333333" stroke="#333333" stroke-width="0.8"/>
</svg>
