<svg width="222" height="272" viewBox="0 0 222 272" fill="none" xmlns="http://www.w3.org/2000/svg">
<path d="M143.077 4L180.296 4L152.121 49.9425L207.767 146.908C214.297 159.315 224.613 190.396 213.644 215.47C199.931 246.812 163.692 268.36 135.288 268.36C106.883 268.36 81.4177 258.566 59.8698 222.326C57.2579 217.429 51.8383 204.892 51.0547 193.922H19.9405L6 165.859H132.349L147.045 193.922H82.3972C84.0296 204.369 93.1711 226.831 116.678 233.1C146.061 240.935 164.671 229.182 176.424 212.531C188.178 195.881 188.178 176.292 175.445 152.785C165.259 133.979 143.168 97.9356 133.396 82.2644L104.583 129.62H67.3636L143.077 4Z" fill="#023D89"/>
<path d="M152.121 49.9425L180.296 4L143.077 4L67.3636 129.62H104.583L133.396 82.2644M152.121 49.9425L207.767 146.908C214.297 159.315 224.613 190.396 213.644 215.47C199.931 246.812 163.692 268.36 135.288 268.36C106.883 268.36 81.4177 258.566 59.8698 222.326C57.2579 217.429 51.8383 204.892 51.0547 193.922H19.9405L6 165.859H132.349L147.045 193.922H82.3972C84.0296 204.369 93.1711 226.831 116.678 233.1C146.061 240.935 164.671 229.182 176.424 212.531C188.178 195.881 188.178 176.292 175.445 152.785C165.259 133.979 143.168 97.9356 133.396 82.2644M152.121 49.9425L133.396 82.2644" stroke="#023D89" stroke-width="6.56023"/>
</svg>
