<svg width="1284" height="272" viewBox="0 0 1284 272" fill="none" xmlns="http://www.w3.org/2000/svg">
<path d="M143.077 4L180.296 4L152.121 49.9425L207.767 146.908C214.297 159.315 224.613 190.396 213.644 215.47C199.931 246.812 163.692 268.36 135.288 268.36C106.883 268.36 81.4177 258.566 59.8698 222.326C57.2579 217.429 51.8383 204.892 51.0547 193.922H19.9405L6 165.859H132.349L147.045 193.922H82.3972C84.0296 204.369 93.1711 226.831 116.678 233.1C146.061 240.935 164.671 229.182 176.424 212.531C188.178 195.881 188.178 176.292 175.445 152.785C165.259 133.979 143.168 97.9356 133.396 82.2644L104.583 129.62H67.3636L143.077 4Z" fill="#023D89"/>
<path d="M152.121 49.9425L180.296 4L143.077 4L67.3636 129.62H104.583L133.396 82.2644M152.121 49.9425L207.767 146.908C214.297 159.315 224.613 190.396 213.644 215.47C199.931 246.812 163.692 268.36 135.288 268.36C106.883 268.36 81.4177 258.566 59.8698 222.326C57.2579 217.429 51.8383 204.892 51.0547 193.922H19.9405L6 165.859H132.349L147.045 193.922H82.3972C84.0296 204.369 93.1711 226.831 116.678 233.1C146.061 240.935 164.671 229.182 176.424 212.531C188.178 195.881 188.178 176.292 175.445 152.785C165.259 133.979 143.168 97.9356 133.396 82.2644M152.121 49.9425L133.396 82.2644" stroke="#023D89" stroke-width="6.56023"/>
<path d="M262.25 227V46H381.5V77H299.75V121H373.75V152H299.75V227H262.25ZM484 169.25V91.25H521V227H485.5V202.5H484C477.75 218.25 463.25 228.75 442.75 228.75C415.5 228.75 397 209.5 397 177.75V91.25H434V171.25C434 187.25 443.25 197.5 457.75 197.5C471.25 197.5 484 187.75 484 169.25ZM586.75 148.5V227H549.75V91.25H585V115H586.5C592.75 99.25 607.25 89.5 627.25 89.5C655.5 89.5 674.25 108.75 674 140.5V227H637.25V147C637.25 130.25 628 120.25 612.75 120.25C597.25 120.25 586.75 130.5 586.75 148.5ZM752.75 229.25C721.75 229.25 697.5 204.5 697.5 159.25C697.5 112.75 722.75 89.5 752.75 89.5C775.5 89.5 786.25 103 791.25 114H792.5V46H829.5V227H793V205.25H791.25C786 216.5 774.75 229.25 752.75 229.25ZM764.25 199.75C782.75 199.75 793.25 183.5 793.25 159C793.25 134.5 782.75 119 764.25 119C745.5 119 735.5 135.25 735.5 159C735.5 183 745.5 199.75 764.25 199.75Z" fill="#111111"/>
<path d="M860 227V46H897.5V196H975.5V227H860ZM992.5 189C992.5 158.75 1017 148.75 1043 147.25C1052.75 146.625 1071 145.75 1076.75 145.5V134.5C1076.5 123.25 1068.75 116.5 1055 116.5C1042.5 116.5 1034.5 122.25 1032.5 131.5H997.25C999.5 108 1020 89.5 1056 89.5C1085.5 89.5 1113.5 102.75 1113.5 135.5V227H1078.5V208.25H1077.5C1070.75 220.75 1058 229.5 1037.75 229.5C1011.75 229.5 992.5 216 992.5 189ZM1028 188C1028 198.5 1036.5 204 1048.25 204C1065 204 1077 192.75 1076.75 178.5V168.5C1071.12 168.75 1055.38 169.625 1049 170.25C1036.25 171.5 1028 177.5 1028 188ZM1142.5 227V46H1179.5V114H1180.5C1185.75 103 1196.5 89.5 1219.25 89.5C1249.25 89.5 1274.5 112.75 1274.5 159.25C1274.5 204.5 1250.25 229.25 1219.25 229.25C1197 229.25 1185.75 216.5 1180.5 205.25H1179V227H1142.5ZM1178.75 159C1178.75 183.5 1189.25 199.75 1207.5 199.75C1226.5 199.75 1236.5 183 1236.5 159C1236.5 135.25 1226.5 119 1207.5 119C1189 119 1178.75 134.5 1178.75 159Z" fill="#023D89"/>
</svg>
